<svg width="28" height="28" viewBox="0 0 28 28" fill="none" xmlns="http://www.w3.org/2000/svg">
<path d="M25.7297 2.55475C26.1704 2.99591 26.5029 3.52957 26.702 4.11532C26.9011 4.70107 26.9616 5.32354 26.8789 5.93559C26.7962 6.54764 26.5724 7.13322 26.2246 7.64798C25.8768 8.16274 25.4141 8.59318 24.8714 8.90669C20.9593 11.1609 16.3943 12.0782 11.8929 11.5146C7.39139 10.951 3.20825 8.93848 0 5.79285L5.79034 0C7.70762 1.87863 10.2046 3.08358 12.8929 3.42741C15.5812 3.77124 18.3101 3.23467 20.6551 1.90118C21.4533 1.44018 22.3857 1.2535 23.3045 1.37072C24.2233 1.48794 25.0758 1.90235 25.7271 2.54828L25.7297 2.55475Z" fill="#456EFE"/>
<path d="M25.705 2.52886C24.929 1.76866 23.8767 1.34161 22.7795 1.34161C21.6823 1.34161 20.63 1.76866 19.8539 2.52886L2.29143 19.7417C1.51579 20.5023 1.08008 21.5337 1.08008 22.609C1.08008 23.6844 1.51579 24.7157 2.29143 25.4763V25.4763C2.67552 25.8531 3.13158 26.1519 3.63356 26.3558C4.13554 26.5597 4.67359 26.6646 5.21697 26.6646C5.76035 26.6646 6.29841 26.5597 6.80039 26.3558C7.30237 26.1519 7.75843 25.8531 8.14251 25.4763L25.705 8.26346C26.0894 7.88702 26.3943 7.44004 26.6023 6.94805C26.8104 6.45607 26.9174 5.92872 26.9174 5.39616C26.9174 4.86359 26.8104 4.33625 26.6023 3.84426C26.3943 3.35228 26.0894 2.90529 25.705 2.52886Z" fill="#ABFA00"/>
<path d="M2.26956 25.4439C1.82882 25.003 1.49624 24.4695 1.29704 23.8839C1.09784 23.2983 1.03723 22.6759 1.11982 22.064C1.2024 21.452 1.426 20.8665 1.77368 20.3518C2.12136 19.8371 2.584 19.4067 3.12656 19.0933C7.03886 16.8395 11.6038 15.9223 16.1054 16.4856C20.6069 17.0489 24.7903 19.0609 27.9993 22.2058L22.2063 28C20.289 26.1213 17.792 24.9164 15.1037 24.5725C12.4154 24.2287 9.68652 24.7653 7.34156 26.0988C6.5424 26.5586 5.60954 26.7438 4.69079 26.6252C3.77204 26.5066 2.91996 26.0909 2.26956 25.4439Z" fill="#ABFA00"/>
</svg>
