<svg width="69" height="30" viewBox="0 0 69 30" fill="none" xmlns="http://www.w3.org/2000/svg">
<path d="M66.7297 3.55475C67.1704 3.99591 67.5029 4.52957 67.702 5.11532C67.9011 5.70107 67.9616 6.32354 67.8789 6.93559C67.7962 7.54764 67.5724 8.13322 67.2246 8.64798C66.8768 9.16274 66.4141 9.59318 65.8714 9.90669C61.9593 12.1609 57.3943 13.0782 52.8929 12.5146C48.3914 11.951 44.2083 9.93848 41 6.79285L46.7903 1C48.7076 2.87863 51.2046 4.08358 53.8929 4.42741C56.5812 4.77124 59.3101 4.23467 61.6551 2.90118C62.4533 2.44018 63.3857 2.2535 64.3045 2.37072C65.2233 2.48794 66.0758 2.90235 66.7271 3.54828L66.7297 3.55475Z" fill="#456EFE"/>
<path d="M66.705 3.52886C65.929 2.76866 64.8767 2.34161 63.7795 2.34161C62.6823 2.34161 61.63 2.76866 60.8539 3.52886L43.2914 20.7417C42.5158 21.5023 42.0801 22.5337 42.0801 23.609C42.0801 24.6844 42.5158 25.7157 43.2914 26.4763V26.4763C43.6755 26.8531 44.1316 27.1519 44.6336 27.3558C45.1355 27.5597 45.6736 27.6646 46.217 27.6646C46.7604 27.6646 47.2984 27.5597 47.8004 27.3558C48.3024 27.1519 48.7584 26.8531 49.1425 26.4763L66.705 9.26346C67.0894 8.88702 67.3943 8.44004 67.6023 7.94805C67.8104 7.45607 67.9174 6.92872 67.9174 6.39616C67.9174 5.86359 67.8104 5.33625 67.6023 4.84426C67.3943 4.35228 67.0894 3.90529 66.705 3.52886Z" fill="#ABFA00"/>
<path d="M43.2696 26.4439C42.8288 26.003 42.4962 25.4695 42.297 24.8839C42.0978 24.2983 42.0372 23.6759 42.1198 23.064C42.2024 22.452 42.426 21.8665 42.7737 21.3518C43.1214 20.8371 43.584 20.4067 44.1266 20.0933C48.0389 17.8395 52.6038 16.9223 57.1054 17.4856C61.6069 18.0489 65.7903 20.0609 68.9993 23.2058L63.2063 29C61.289 27.1213 58.792 25.9164 56.1037 25.5725C53.4154 25.2287 50.6865 25.7653 48.3416 27.0988C47.5424 27.5586 46.6095 27.7438 45.6908 27.6252C44.772 27.5066 43.92 27.0909 43.2696 26.4439Z" fill="#ABFA00"/>
<path d="M0.8 23.32C0.8 19.9867 2.26667 18.32 5.2 18.32H9.58C9.52667 17.5333 9.28 16.92 8.84 16.48C8.41333 16.04 7.87333 15.82 7.22 15.82C6.55333 15.82 6.04667 15.9867 5.7 16.32C5.36667 16.64 5.14 17.0533 5.02 17.56L2.84 16.86C2.96 16.0867 3.16667 15.44 3.46 14.92C3.76667 14.4 4.12 13.9867 4.52 13.68C4.93333 13.3733 5.36667 13.1533 5.82 13.02C6.28667 12.8867 6.74 12.82 7.18 12.82C8.54 12.82 9.61333 13.34 10.4 14.38C11.2 15.4067 11.6 16.8733 11.6 18.78V21.32H5.2C4.8 21.32 4.46667 21.3533 4.2 21.42C3.94667 21.4733 3.74667 21.5733 3.6 21.72C3.45333 21.8667 3.34667 22.0667 3.28 22.32C3.22667 22.5867 3.2 22.92 3.2 23.32V28.08H0.8V23.32ZM13.5047 7.2H15.9047V22H13.5047V7.2ZM15.9094 23.8H16.7094C17.9227 23.8 18.8094 23.5533 19.3694 23.06C19.9427 22.5667 20.2227 21.7467 20.2094 20.6C20.2094 20.2933 20.1894 19.9733 20.1494 19.64C20.1094 19.2933 20.056 18.9267 19.9894 18.54L19.5694 15.88L21.7494 15.54L22.0494 17.4C22.1027 17.6933 22.1427 17.9733 22.1694 18.24C22.2094 18.5067 22.2427 18.76 22.2694 19H24.1094V21.4L23.5094 22H22.2694C22.0427 23.48 21.456 24.6467 20.5094 25.5C19.576 26.3667 18.316 26.8 16.7294 26.8H15.9094V23.8ZM20.1894 13.94C19.8427 13.94 19.556 13.8333 19.3294 13.62C19.116 13.4067 19.0094 13.0667 19.0094 12.6C19.0094 12.1333 19.116 11.7933 19.3294 11.58C19.556 11.3667 19.8427 11.26 20.1894 11.26H20.5894C20.936 11.26 21.216 11.3667 21.4294 11.58C21.656 11.7933 21.7694 12.1333 21.7694 12.6C21.7694 13.0667 21.656 13.4067 21.4294 13.62C21.216 13.8333 20.936 13.94 20.5894 13.94H20.1894ZM23.5016 19.6L24.1016 19H25.7016V18.9C25.4349 18.5133 25.2282 18.1 25.0816 17.66C24.9482 17.22 24.8816 16.7467 24.8816 16.24C24.8816 15.5867 24.9949 14.9733 25.2216 14.4C25.4616 13.8267 25.7816 13.3267 26.1816 12.9C26.5949 12.46 27.0749 12.12 27.6216 11.88C28.1816 11.6267 28.7882 11.5 29.4416 11.5C30.5216 11.5 31.4016 11.72 32.0816 12.16C32.7616 12.6 33.3282 13.2 33.7816 13.96L31.6416 15.86C31.3482 15.3933 31.0082 15.0533 30.6216 14.84C30.2349 14.6133 29.7749 14.5 29.2416 14.5C28.4949 14.5 27.9149 14.6533 27.5016 14.96C27.0882 15.2533 26.8816 15.68 26.8816 16.24C26.8816 16.92 27.1682 17.4467 27.7416 17.82C28.3149 18.18 29.1216 18.36 30.1616 18.36C30.5082 18.36 30.8749 18.3333 31.2616 18.28C31.6482 18.2267 32.0016 18.1533 32.3216 18.06L34.2616 17.52L35.0216 20.22L32.0816 21.12C31.5082 21.2933 30.9549 21.44 30.4216 21.56C29.8882 21.6667 29.3016 21.7533 28.6616 21.82C28.0216 21.8867 27.2882 21.9333 26.4616 21.96C25.6349 21.9867 24.6482 22 23.5016 22V19.6Z" fill="white"/>
</svg>
