<svg width="98" height="41" viewBox="0 0 98 41" fill="none" xmlns="http://www.w3.org/2000/svg">
<path d="M1.08 31.782C1.08 27.282 3.06 25.032 7.02 25.032H12.933C12.861 23.97 12.528 23.142 11.934 22.548C11.358 21.954 10.629 21.657 9.747 21.657C8.847 21.657 8.163 21.882 7.695 22.332C7.245 22.764 6.939 23.322 6.777 24.006L3.834 23.061C3.996 22.017 4.275 21.144 4.671 20.442C5.085 19.74 5.562 19.182 6.102 18.768C6.66 18.354 7.245 18.057 7.857 17.877C8.487 17.697 9.099 17.607 9.693 17.607C11.529 17.607 12.978 18.309 14.04 19.713C15.12 21.099 15.66 23.079 15.66 25.653V29.082H7.02C6.48 29.082 6.03 29.127 5.67 29.217C5.328 29.289 5.058 29.424 4.86 29.622C4.662 29.82 4.518 30.09 4.428 30.432C4.356 30.792 4.32 31.242 4.32 31.782V38.208H1.08V31.782ZM18.2313 10.02H21.4713V30H18.2313V10.02ZM21.4777 32.43H22.5577C24.1957 32.43 25.3927 32.097 26.1487 31.431C26.9227 30.765 27.3007 29.658 27.2827 28.11C27.2827 27.696 27.2557 27.264 27.2017 26.814C27.1477 26.346 27.0757 25.851 26.9857 25.329L26.4187 21.738L29.3617 21.279L29.7667 23.79C29.8387 24.186 29.8927 24.564 29.9287 24.924C29.9827 25.284 30.0277 25.626 30.0637 25.95H32.5477V29.19L31.7377 30H30.0637C29.7577 31.998 28.9657 33.573 27.6877 34.725C26.4277 35.895 24.7267 36.48 22.5847 36.48H21.4777V32.43ZM27.2557 19.119C26.7877 19.119 26.4007 18.975 26.0947 18.687C25.8067 18.399 25.6627 17.94 25.6627 17.31C25.6627 16.68 25.8067 16.221 26.0947 15.933C26.4007 15.645 26.7877 15.501 27.2557 15.501H27.7957C28.2637 15.501 28.6417 15.645 28.9297 15.933C29.2357 16.221 29.3887 16.68 29.3887 17.31C29.3887 17.94 29.2357 18.399 28.9297 18.687C28.6417 18.975 28.2637 19.119 27.7957 19.119H27.2557ZM31.7271 26.76L32.5371 25.95H34.6971V25.815C34.3371 25.293 34.0581 24.735 33.8601 24.141C33.6801 23.547 33.5901 22.908 33.5901 22.224C33.5901 21.342 33.7431 20.514 34.0491 19.74C34.3731 18.966 34.8051 18.291 35.3451 17.715C35.9031 17.121 36.5511 16.662 37.2891 16.338C38.0451 15.996 38.8641 15.825 39.7461 15.825C41.2041 15.825 42.3921 16.122 43.3101 16.716C44.2281 17.31 44.9931 18.12 45.6051 19.146L42.7161 21.711C42.3201 21.081 41.8611 20.622 41.3391 20.334C40.8171 20.028 40.1961 19.875 39.4761 19.875C38.4681 19.875 37.6851 20.082 37.1271 20.496C36.5691 20.892 36.2901 21.468 36.2901 22.224C36.2901 23.142 36.6771 23.853 37.4511 24.357C38.2251 24.843 39.3141 25.086 40.7181 25.086C41.1861 25.086 41.6811 25.05 42.2031 24.978C42.7251 24.906 43.2021 24.807 43.6341 24.681L46.2531 23.952L47.2791 27.597L43.3101 28.812C42.5361 29.046 41.7891 29.244 41.0691 29.406C40.3491 29.55 39.5571 29.667 38.6931 29.757C37.8291 29.847 36.8391 29.91 35.7231 29.946C34.6071 29.982 33.2751 30 31.7271 30V26.76Z" fill="#151D48"/>
<rect x="61" y="2" width="37" height="37" rx="8" fill="#4F00FA"/>
<path d="M88.5883 11.0838C88.9238 11.4436 89.1769 11.8789 89.3285 12.3566C89.4801 12.8344 89.5261 13.3421 89.4632 13.8413C89.4002 14.3405 89.2299 14.8181 88.9651 15.238C88.7003 15.6578 88.348 16.0089 87.9348 16.2646C84.9566 18.1032 81.4812 18.8514 78.0542 18.3917C74.6271 17.9321 71.4425 16.2906 69 13.7249L73.4082 9C74.8679 10.5323 76.7689 11.5151 78.8155 11.7955C80.8621 12.076 82.9397 11.6383 84.7249 10.5507C85.3326 10.1747 86.0425 10.0224 86.7419 10.118C87.4414 10.2136 88.0905 10.5516 88.5863 11.0785L88.5883 11.0838Z" fill="white"/>
<path d="M88.5709 11.0627C87.9801 10.4426 87.179 10.0943 86.3437 10.0943C85.5084 10.0943 84.7073 10.4426 84.1164 11.0627L70.7459 25.1022C70.1554 25.7225 69.8237 26.5637 69.8237 27.4408C69.8237 28.3179 70.1554 29.1592 70.7459 29.7795V29.7795C71.0384 30.0868 71.3856 30.3305 71.7677 30.4968C72.1499 30.6632 72.5595 30.7488 72.9732 30.7488C73.3869 30.7488 73.7965 30.6632 74.1787 30.4968C74.5608 30.3305 74.908 30.0868 75.2004 29.7795L88.5709 15.74C88.8636 15.433 89.0957 15.0684 89.2541 14.6671C89.4125 14.2658 89.494 13.8357 89.494 13.4013C89.494 12.967 89.4125 12.5368 89.2541 12.1356C89.0957 11.7343 88.8636 11.3697 88.5709 11.0627Z" fill="#ABFA00"/>
<path d="M70.7273 29.7529C70.3918 29.3932 70.1386 28.9581 69.9869 28.4805C69.8353 28.0028 69.7891 27.4952 69.852 26.9961C69.9149 26.497 70.0851 26.0194 70.3498 25.5996C70.6145 25.1798 70.9667 24.8287 71.3797 24.573C74.3582 22.7348 77.8336 21.9867 81.2606 22.4461C84.6877 22.9056 87.8726 24.5466 90.3156 27.1118L85.9053 31.8377C84.4457 30.3054 82.5447 29.3226 80.4981 29.0422C78.4514 28.7617 76.3739 29.1994 74.5887 30.287C73.9803 30.662 73.2701 30.8132 72.5706 30.7164C71.8712 30.6197 71.2225 30.2806 70.7273 29.7529Z" fill="#ABFA00"/>
</svg>
