<svg width="674" height="495" viewBox="0 0 674 495" fill="none" xmlns="http://www.w3.org/2000/svg">
<rect width="673.585" height="495" rx="10" fill="#ABFA00"/>
<path d="M247.501 348.144L275.184 360.212L302.864 372.262L318.64 327.436L334.399 282.623H383.269L383.223 260.166L383.181 237.705L342.921 237.751L302.658 237.793C297.421 237.799 292.318 239.446 288.067 242.503C283.815 245.56 280.629 249.873 278.956 254.834C273.711 270.383 268.47 285.94 263.231 301.506L247.501 348.144Z" fill="#ABFA00" stroke="black" stroke-width="1.70225" stroke-miterlimit="10" stroke-linecap="round"/>
<path d="M260.477 245.744L238.831 333.066L217.19 420.389" stroke="black" stroke-width="1.70225" stroke-miterlimit="10" stroke-linecap="round"/>
<path d="M319.901 351.323L314.212 312.254C312.323 299.233 310.435 286.207 308.549 273.175C307.342 264.939 308.128 257.349 310.373 251.311C312.619 245.273 316.382 240.8 321.163 238.744C322.462 238.194 323.83 237.821 325.229 237.633C327.31 237.366 329.421 237.425 331.485 237.81H442.118C442.282 239.092 442.467 240.715 442.618 242.62C442.77 244.525 442.883 246.711 442.913 249.121C442.984 255.491 443.068 262.357 441.971 268.752C440.873 275.147 438.607 281.076 433.982 285.571C432.763 286.748 431.421 287.792 429.979 288.682C427.736 290.054 425.315 291.11 422.785 291.823C421.48 292.2 420.151 292.489 418.807 292.689C417.463 292.89 416.108 293.014 414.75 293.059L395.08 293.728L375.403 294.396L377.749 321.041L380.095 347.682L350.002 349.503L319.901 351.323Z" fill="#ABFA00" stroke="black" stroke-width="1.70225" stroke-miterlimit="10" stroke-linecap="round"/>
<path d="M449.825 245.744H225.927C225.734 245.747 225.543 245.711 225.364 245.639C225.186 245.568 225.023 245.461 224.886 245.325C224.749 245.19 224.64 245.029 224.567 244.851C224.493 244.673 224.455 244.482 224.455 244.289V239.269C224.455 238.883 224.608 238.512 224.881 238.239C225.154 237.965 225.524 237.811 225.91 237.81H449.825C450.211 237.811 450.581 237.965 450.854 238.239C451.127 238.512 451.28 238.883 451.28 239.269V244.289C451.28 244.481 451.243 244.67 451.17 244.847C451.097 245.023 450.99 245.184 450.855 245.319C450.72 245.455 450.559 245.562 450.382 245.635C450.206 245.707 450.016 245.745 449.825 245.744Z" fill="white" stroke="black" stroke-width="1.70225" stroke-miterlimit="10" stroke-linecap="round"/>
<path d="M393.697 105.099C402.367 104.451 411.331 104.422 420.056 105.67C428.78 106.919 437.253 109.455 444.935 113.886C452.032 117.998 457.637 123.704 462.262 130.209C466.887 136.713 470.533 144.008 473.699 151.308C477.79 160.718 483.454 171.452 487.364 182.498C491.274 193.543 493.423 204.904 490.484 215.563C488.02 224.494 481.936 230.057 474.426 233.387C466.917 236.717 457.978 237.81 449.825 237.81H284.695C284.092 232.408 282.691 227.126 280.537 222.135C276.971 213.902 270.446 204.896 258.555 201.722L266.157 199.199L282.9 193.707L301.144 187.682L307.224 185.672C307.224 185.672 307.644 181.632 308.292 176.393C308.939 171.154 309.864 164.716 310.886 159.931C312.11 153.958 313.914 148.118 316.272 142.495C319.106 135.889 323.189 128.914 329.176 122.838C334.087 117.855 340.281 114.95 346.882 112.986C353.483 111.023 360.488 109.997 367.031 108.782C371.273 107.996 375.663 107.247 380.128 106.612C384.594 105.977 389.126 105.439 393.697 105.099Z" fill="white" stroke="black" stroke-width="1.70225" stroke-miterlimit="10" stroke-linecap="round"/>
<path d="M367.733 135.128L356.767 186.463L345.806 237.798L364.491 237.751L383.181 237.705L375.638 186.408L368.09 135.112C368.086 135.069 368.066 135.029 368.034 135C368.002 134.972 367.961 134.956 367.918 134.956C367.894 134.955 367.871 134.958 367.849 134.967C367.827 134.975 367.806 134.987 367.789 135.003C367.772 135.019 367.758 135.039 367.748 135.06C367.739 135.082 367.733 135.105 367.733 135.128Z" fill="#ABFA00" stroke="black" stroke-width="1.70225" stroke-miterlimit="10" stroke-linecap="round"/>
<path d="M258.555 201.721C249.557 203.122 241.551 205.964 235.122 209.71C228.693 213.457 223.858 218.12 221.197 223.165C219.842 225.887 218.805 228.755 218.106 231.713C217.45 234.32 217.147 236.309 217.11 236.586C216.698 239.076 216.483 241.594 216.466 244.117C216.508 246.913 217.042 249.499 218.741 250.365C219.099 250.543 219.49 250.646 219.889 250.668C220.231 250.685 220.574 250.661 220.911 250.596C220.942 251.739 221.39 252.831 222.172 253.666C222.896 254.457 223.898 254.937 224.968 255.007C225.831 255.046 226.684 254.809 227.403 254.33C228.16 253.834 228.755 253.126 229.114 252.295C229.393 253.023 229.843 253.673 230.426 254.191C230.964 254.675 231.635 254.987 232.351 255.087C232.864 255.134 233.381 255.078 233.872 254.923C234.363 254.767 234.818 254.516 235.211 254.183C236.122 253.428 236.737 252.375 236.947 251.21C236.949 251.198 236.955 251.188 236.965 251.18C236.974 251.172 236.986 251.168 236.998 251.168C237.004 251.168 237.01 251.168 237.016 251.17C237.022 251.172 237.027 251.175 237.032 251.179C237.036 251.183 237.04 251.187 237.043 251.193C237.046 251.198 237.048 251.204 237.048 251.21C237.238 252.191 237.688 253.104 238.352 253.851C238.886 254.482 239.635 254.893 240.454 255.007C241.476 255.104 242.619 254.561 243.481 253.573C243.961 253.005 244.323 252.347 244.546 251.637C244.768 250.928 244.847 250.181 244.776 249.44L245.029 244.765L245.281 240.085C245.315 239.47 245.584 238.892 246.031 238.469C246.478 238.046 247.07 237.81 247.686 237.81H284.687C284.039 232.338 282.602 226.989 280.419 221.929C276.828 213.629 270.286 204.606 258.555 201.721Z" fill="white" stroke="black" stroke-width="1.70225" stroke-miterlimit="10" stroke-linecap="round"/>
<path d="M388.504 237.81H351.924C351.925 232.429 354.063 227.269 357.868 223.464C361.674 219.66 366.834 217.522 372.215 217.522H388.504C389.836 217.522 391.155 217.784 392.386 218.293C393.617 218.803 394.736 219.55 395.678 220.491C396.62 221.433 397.368 222.551 397.878 223.782C398.387 225.013 398.65 226.332 398.65 227.664C398.65 228.997 398.388 230.316 397.879 231.547C397.369 232.779 396.622 233.897 395.68 234.839C394.737 235.782 393.619 236.529 392.387 237.039C391.156 237.548 389.837 237.81 388.504 237.81Z" fill="white" stroke="black" stroke-width="1.70225" stroke-miterlimit="10" stroke-linecap="round"/>
<path d="M370.777 217.522C372.493 219.064 373.917 220.901 374.982 222.946C376.836 226.445 378.207 231.52 376.285 237.81" stroke="black" stroke-width="1.70225" stroke-miterlimit="10" stroke-linecap="round"/>
<path d="M268.945 222.741L258.092 227.063L247.244 231.385C246.254 231.86 245.467 232.672 245.024 233.677C244.836 234.075 244.737 234.51 244.733 234.951C244.729 235.391 244.822 235.828 245.003 236.229C245.339 236.831 245.884 237.288 246.534 237.516C246.903 237.665 247.29 237.764 247.686 237.81" stroke="black" stroke-width="1.70225" stroke-miterlimit="10" stroke-linecap="round"/>
<path d="M297.145 391.41C297.86 388.278 299.05 384.422 300.45 379.978C301.85 375.533 303.452 370.5 305 365.005C305.184 364.443 305.312 363.864 305.382 363.277C305.482 362.388 305.435 361.489 305.244 360.615C305.07 359.85 304.758 359.124 304.323 358.471C303.893 357.811 303.341 357.24 302.696 356.789C300.888 355.568 298.95 354.552 296.918 353.758C295.026 352.988 293.29 352.429 292.087 351.996C290.511 351.393 288.899 350.889 287.26 350.486C285.318 350.033 283.325 349.838 281.332 349.906C279.929 349.955 278.533 350.13 277.161 350.427C276.115 350.653 275.085 350.948 274.079 351.31C274.079 351.31 276.147 348.085 276.547 344.537C276.946 340.988 275.664 337.103 268.979 335.795L261.831 334.534L254.683 333.272C254.096 333.17 253.496 333.184 252.915 333.314C252.334 333.443 251.785 333.687 251.298 334.029C250.811 334.372 250.397 334.807 250.079 335.31C249.761 335.813 249.545 336.373 249.444 336.96L248.464 342.552L247.501 348.132C247.238 349.726 246.516 351.209 245.424 352.399C243.603 354.392 240.21 356.095 233.933 354.952L222.542 352.303L211.152 349.658C209.285 349.238 207.422 348.771 205.564 348.308C203.705 347.846 201.847 347.366 199.993 346.883C196.743 346.042 191.138 344.957 186.05 345.84C180.962 346.723 176.379 349.561 175.189 356.554L230.207 390.006L285.221 423.458C289.249 415.89 292.23 407.901 294.206 401.762C296.183 395.623 297.145 391.41 297.145 391.41Z" fill="white" stroke="black" stroke-width="1.70225" stroke-miterlimit="10" stroke-linecap="round"/>
<path d="M274.07 351.323C272.189 353.456 270.114 355.411 267.873 357.163C264.168 360.06 259.245 362.911 254.376 362.73" stroke="black" stroke-width="1.70225" stroke-miterlimit="10" stroke-linecap="round"/>
<path d="M240.386 355.095L242.989 359.72L245.596 364.345" stroke="black" stroke-width="1.70225" stroke-miterlimit="10" stroke-linecap="round"/>
<path d="M226.915 353.484L228.866 358.274C229.514 359.871 230.162 361.468 230.813 363.063" stroke="black" stroke-width="1.70225" stroke-miterlimit="10" stroke-linecap="round"/>
<path d="M215.314 350.857L217.143 356.167L218.989 361.473" stroke="black" stroke-width="1.70225" stroke-miterlimit="10" stroke-linecap="round"/>
<path d="M285.116 365.539C284.495 366.327 283.62 366.875 282.641 367.09C281.661 367.306 280.637 367.174 279.743 366.719C278.849 366.264 278.141 365.513 277.739 364.594C277.337 363.675 277.266 362.645 277.538 361.68C277.81 360.715 278.409 359.873 279.232 359.3C280.055 358.726 281.051 358.456 282.051 358.535C283.051 358.614 283.992 359.037 284.715 359.732C285.438 360.427 285.898 361.352 286.016 362.348C286.083 362.913 286.038 363.485 285.884 364.033C285.729 364.581 285.468 365.092 285.116 365.539Z" fill="black" stroke="black" stroke-width="1.70225" stroke-miterlimit="10" stroke-linecap="round"/>
<path d="M285.313 423.635L230.342 390.006L175.357 356.369C174.545 359.552 174.774 362.911 176.009 365.955C177.245 368.999 179.423 371.567 182.224 373.284L202.688 385.86L223.164 398.411C224.428 399.182 225.77 399.818 227.167 400.307C228.565 400.793 230.012 401.127 231.481 401.304L232.814 401.464L234.147 401.623C234.318 401.644 234.482 401.705 234.624 401.801C234.767 401.898 234.884 402.027 234.967 402.178C235.05 402.328 235.096 402.495 235.102 402.667C235.107 402.838 235.071 403.008 234.996 403.162C234.743 403.692 234.695 404.296 234.861 404.859C235.027 405.422 235.396 405.903 235.896 406.211L245.352 412.005L254.804 417.799C255.244 418.069 255.757 418.198 256.273 418.168C256.789 418.138 257.283 417.951 257.689 417.63L258.08 417.324L258.471 417.017C258.564 416.942 258.676 416.896 258.794 416.883C258.912 416.87 259.032 416.891 259.138 416.944C259.245 416.996 259.335 417.078 259.397 417.18C259.459 417.281 259.49 417.398 259.488 417.517L259.354 418.492L259.215 419.468C259.176 419.75 259.219 420.038 259.341 420.296C259.463 420.553 259.657 420.77 259.9 420.919L261.851 422.117L263.807 423.311C264.062 423.472 264.361 423.549 264.663 423.532C264.964 423.514 265.253 423.403 265.488 423.214L266.216 422.642L266.943 422.071C267.036 421.996 267.148 421.949 267.267 421.937C267.385 421.924 267.505 421.946 267.612 421.999C267.719 422.051 267.808 422.133 267.871 422.234C267.933 422.335 267.966 422.452 267.965 422.571L267.877 423.189L267.793 423.807C267.717 424.337 267.799 424.878 268.028 425.362C268.257 425.846 268.622 426.253 269.079 426.532L270.441 427.373L271.804 428.214C272.964 428.926 274.266 429.374 275.619 429.528C276.971 429.682 278.341 429.536 279.631 429.102C280.921 428.668 282.1 427.956 283.085 427.017C284.07 426.077 284.836 424.933 285.33 423.664L285.313 423.635Z" fill="black" stroke="black" stroke-width="1.70225" stroke-miterlimit="10" stroke-linecap="round"/>
<path d="M239.659 227.988C239.239 230.035 238.818 232.192 238.452 234.484C238.087 236.776 237.788 239.164 237.553 241.67C237.396 243.352 237.277 244.99 237.195 246.585C237.114 248.18 237.065 249.722 237.048 251.21" stroke="black" stroke-width="1.70225" stroke-miterlimit="10" stroke-linecap="round"/>
<path d="M229.114 252.295C229.139 249.44 229.261 246.446 229.505 243.331C229.749 240.215 230.119 236.986 230.636 233.66C230.796 232.638 230.969 231.633 231.145 230.641C231.322 229.649 231.511 228.677 231.709 227.719" stroke="black" stroke-width="1.70225" stroke-miterlimit="10" stroke-linecap="round"/>
<path d="M224.258 227.504C223.977 228.569 223.71 229.66 223.455 230.775C223.199 231.891 222.958 233.038 222.731 234.215C222.155 237.183 221.739 240.047 221.445 242.784C221.15 245.521 220.982 248.132 220.906 250.596" stroke="black" stroke-width="1.70225" stroke-miterlimit="10" stroke-linecap="round"/>
<path d="M418.614 237.81L400.899 237.759L383.181 237.705C381.415 237.705 379.641 237.742 377.866 237.772C376.092 237.801 374.318 237.827 372.552 237.772C371.306 237.761 370.085 237.426 369.007 236.801C368.468 236.488 368.016 236.044 367.694 235.511C367.371 234.977 367.188 234.371 367.161 233.748C367.131 233.04 367.301 232.337 367.653 231.721C368 231.103 368.476 230.566 369.049 230.149C369.967 229.55 371.025 229.201 372.119 229.136C373.229 229.009 374.381 229.001 375.415 228.829C376.194 228.7 376.968 228.547 377.736 228.37C378.505 228.189 379.271 227.988 380.023 227.752C381.798 227.226 383.506 226.495 385.111 225.574C386.721 224.659 388.113 223.407 389.194 221.904C389.562 221.376 389.876 220.812 390.131 220.222C390.388 219.63 390.583 219.012 390.712 218.38C390.882 217.553 390.869 216.699 390.674 215.878C390.482 215.06 390.089 214.303 389.53 213.675L389.341 213.477C389.274 213.41 389.211 213.351 389.147 213.297C387.495 211.791 384.876 211.316 381.743 211.817C378.611 212.317 374.961 213.793 371.231 216.185L370.391 216.719C370.11 216.896 369.83 217.068 369.55 217.236L363.339 220.882L357.125 224.527C356.952 224.628 356.776 224.737 356.603 224.847C356.431 224.956 356.259 225.065 356.086 225.175C354.716 226.094 353.167 226.715 351.541 226.995C350.187 227.18 349.052 226.945 348.324 226.272C348.069 226.034 347.863 225.749 347.719 225.431C347.632 225.24 347.564 225.039 347.517 224.834C347.228 223.863 347.292 222.82 347.698 221.891C348.148 220.962 349.069 220.066 350.687 219.145C354.354 216.833 358.353 214.31 362.368 211.812C366.383 209.315 370.357 206.788 374.011 204.5L372.699 204.042L371.387 203.588L371.009 205.106L370.63 206.62L360.152 213.204L349.653 219.776C349.935 218.149 350.242 216.665 350.549 215.34C350.856 214.016 351.163 212.851 351.44 211.867C352.437 208.314 353.273 205.388 354.333 203.13C355.393 200.872 356.675 199.291 358.559 198.433C359.271 198.11 360.03 197.902 360.808 197.815C361.404 197.747 362.006 197.738 362.603 197.79C362.939 197.231 363.32 196.701 363.743 196.205C364.296 195.559 364.922 194.98 365.61 194.481C367.097 193.425 368.818 192.747 370.626 192.505C372.1 192.308 373.591 192.282 375.07 192.429C380.473 192.849 386.423 193.627 391.267 194.334C396.11 195.04 399.844 195.679 400.807 195.843C402.198 196.613 403.535 197.476 404.81 198.425C406.192 199.456 407.491 200.595 408.695 201.831C414.972 208.268 417.588 216.24 418.567 223.11C419.238 227.986 419.253 232.93 418.614 237.81Z" fill="white" stroke="black" stroke-width="1.70225" stroke-miterlimit="10" stroke-linecap="round"/>
<path d="M427.628 161.31L432.426 173.487L437.223 185.664L419.013 190.76L400.807 195.852" stroke="black" stroke-width="1.70225" stroke-miterlimit="10" stroke-linecap="round"/>
<path d="M302.296 114.336C301.001 115.631 298.861 115.837 296.452 115.122C294.042 114.407 291.36 112.776 288.976 110.392C286.592 108.008 284.956 105.346 284.241 102.916C283.526 100.486 283.733 98.3665 285.028 97.0715C286.323 95.7764 288.459 95.5704 290.872 96.2852C293.285 97 295.964 98.6314 298.348 101.015C300.732 103.399 302.368 106.086 303.078 108.496C303.789 110.905 303.587 113.045 302.296 114.336Z" fill="white" stroke="black" stroke-width="1.70225" stroke-miterlimit="10" stroke-linecap="round"/>
<path d="M300.463 115.946C299.404 117.019 298.048 117.751 296.569 118.049C295.095 118.348 293.564 118.193 292.18 117.603C291.02 117.109 289.911 116.505 288.867 115.799C287.637 114.971 286.508 114.003 285.503 112.915C284.511 111.83 283.645 110.637 282.921 109.358C282.296 108.257 281.768 107.105 281.34 105.914C280.93 104.768 280.86 103.529 281.138 102.344C281.415 101.157 282.02 100.072 282.883 99.2118L283.905 98.1858L284.931 97.1641C284.8 97.3313 284.681 97.5069 284.574 97.6897C284.431 97.9292 284.307 98.1794 284.204 98.4381C283.232 100.898 284.325 103.698 285.726 105.948C286.687 107.47 287.815 108.88 289.089 110.152C290.912 111.921 293.011 113.379 295.304 114.47C297.595 115.513 299.878 115.917 301.501 114.946C301.647 114.851 301.788 114.749 301.922 114.639C302.069 114.525 302.204 114.412 302.267 114.357L301.401 115.143L300.463 115.946Z" fill="white" stroke="black" stroke-width="1.70225" stroke-miterlimit="10" stroke-linecap="round"/>
<path d="M283.072 109.572L284.67 108.147L286.268 106.726" stroke="black" stroke-width="1.70225" stroke-miterlimit="10" stroke-linecap="round"/>
<path d="M285.885 112.868L287.26 111.641L288.635 110.417" stroke="black" stroke-width="1.70225" stroke-miterlimit="10" stroke-linecap="round"/>
<path d="M295.055 114.319L293.563 115.702L292.07 117.086" stroke="black" stroke-width="1.70225" stroke-miterlimit="10" stroke-linecap="round"/>
<path d="M467.779 176.548C469.07 177.839 469.276 179.979 468.561 182.389C467.846 184.798 466.223 187.485 463.831 189.869C461.438 192.253 458.785 193.884 456.355 194.599C453.924 195.314 451.805 195.108 450.51 193.813C449.215 192.518 449.009 190.382 449.724 187.968C450.439 185.555 452.074 182.876 454.458 180.492C456.842 178.108 459.525 176.477 461.934 175.762C464.344 175.047 466.484 175.253 467.779 176.548Z" fill="white" stroke="black" stroke-width="1.70225" stroke-miterlimit="10" stroke-linecap="round"/>
<path d="M469.385 178.377C470.457 179.439 471.189 180.796 471.487 182.275C471.785 183.748 471.628 185.278 471.037 186.66C470.543 187.82 469.939 188.929 469.233 189.974C468.406 191.203 467.438 192.332 466.349 193.337C465.265 194.33 464.072 195.196 462.792 195.919C461.691 196.544 460.539 197.072 459.348 197.5C458.203 197.911 456.963 197.982 455.779 197.702C454.593 197.425 453.508 196.822 452.646 195.961L451.62 194.935L450.598 193.909C450.767 194.038 450.942 194.157 451.124 194.266C451.364 194.409 451.614 194.533 451.872 194.636C454.332 195.608 457.132 194.519 459.382 193.114C460.903 192.151 462.313 191.023 463.587 189.751C465.357 187.919 466.816 185.81 467.905 183.507C468.947 181.219 469.351 178.932 468.38 177.309C468.285 177.164 468.182 177.024 468.073 176.889C467.959 176.741 467.846 176.607 467.795 176.548L468.599 177.46L469.385 178.377Z" fill="white" stroke="black" stroke-width="1.70225" stroke-miterlimit="10" stroke-linecap="round"/>
<path d="M463.011 195.768L461.589 194.17L460.164 192.576" stroke="black" stroke-width="1.70225" stroke-miterlimit="10" stroke-linecap="round"/>
<path d="M466.307 192.955L465.083 191.58L463.856 190.205" stroke="black" stroke-width="1.70225" stroke-miterlimit="10" stroke-linecap="round"/>
<path d="M467.758 183.784L469.141 185.277L470.524 186.769" stroke="black" stroke-width="1.70225" stroke-miterlimit="10" stroke-linecap="round"/>
<path d="M375.403 294.396L374.969 288.51L374.536 282.623" stroke="black" stroke-width="1.70225" stroke-miterlimit="10" stroke-linecap="round"/>
<path d="M397.014 308.986V341.564V374.142" stroke="black" stroke-width="1.70225" stroke-miterlimit="10" stroke-linecap="round"/>
<path d="M429.823 389.366V379.553C429.823 378.843 429.683 378.14 429.412 377.484C429.14 376.828 428.742 376.233 428.239 375.731C427.737 375.229 427.141 374.831 426.485 374.56C425.829 374.289 425.126 374.149 424.416 374.15H369.613C368.903 374.149 368.2 374.289 367.544 374.56C366.889 374.831 366.293 375.229 365.791 375.731C365.289 376.233 364.891 376.829 364.62 377.485C364.349 378.14 364.209 378.843 364.21 379.553V389.375" stroke="black" stroke-width="1.70225" stroke-miterlimit="10" stroke-linecap="round"/>
<path d="M439.28 398.823C439.281 401.012 438.522 403.134 437.134 404.826C435.746 406.519 433.814 407.678 431.668 408.105C429.521 408.533 427.292 408.203 425.362 407.172C423.431 406.141 421.918 404.472 421.08 402.45C420.241 400.428 420.13 398.177 420.766 396.083C421.401 393.988 422.742 392.178 424.562 390.962C426.382 389.746 428.568 389.198 430.746 389.412C432.924 389.627 434.961 390.59 436.509 392.138C437.388 393.015 438.086 394.057 438.561 395.204C439.037 396.351 439.281 397.581 439.28 398.823Z" fill="black" stroke="black" stroke-width="1.70225" stroke-miterlimit="10" stroke-linecap="round"/>
<path d="M373.666 398.823C373.667 401.012 372.909 403.134 371.521 404.826C370.133 406.519 368.201 407.678 366.054 408.105C363.908 408.533 361.679 408.203 359.748 407.172C357.817 406.141 356.304 404.472 355.466 402.45C354.628 400.428 354.517 398.177 355.152 396.083C355.787 393.988 357.129 392.178 358.949 390.962C360.769 389.746 362.954 389.198 365.132 389.412C367.311 389.627 369.347 390.59 370.895 392.138C371.775 393.015 372.472 394.057 372.948 395.204C373.423 396.351 373.667 397.581 373.666 398.823Z" fill="black" stroke="black" stroke-width="1.70225" stroke-miterlimit="10" stroke-linecap="round"/>
<path d="M363.091 120.769L365.517 127.454L367.943 134.14L371.753 127.362L375.562 120.584L369.327 120.677L363.091 120.769Z" fill="#ABFA00" stroke="black" stroke-width="1.70225" stroke-miterlimit="10" stroke-linecap="round"/>
<path d="M398.217 151.047L383.08 142.596L367.943 134.14L377.664 116.687L387.381 99.2288C389.189 107.865 390.996 116.502 392.801 125.138C394.606 133.774 396.411 142.411 398.217 151.047Z" fill="white" stroke="black" stroke-width="1.70225" stroke-miterlimit="10" stroke-linecap="round"/>
<path d="M367.943 134.14L361.262 115.064L354.581 95.983L347.841 122.418L341.105 148.852L354.526 141.494L367.943 134.14Z" fill="white" stroke="black" stroke-width="1.70225" stroke-miterlimit="10" stroke-linecap="round"/>
<path d="M341.408 219.982C341.407 220.55 341.209 221.1 340.848 221.538C340.487 221.977 339.985 222.277 339.428 222.387C338.871 222.497 338.292 222.41 337.792 222.142C337.291 221.873 336.899 221.44 336.683 220.915C336.466 220.39 336.438 219.806 336.603 219.263C336.768 218.72 337.117 218.25 337.589 217.935C338.061 217.62 338.628 217.478 339.194 217.534C339.759 217.59 340.287 217.84 340.689 218.241C340.917 218.47 341.098 218.741 341.222 219.04C341.345 219.339 341.408 219.659 341.408 219.982Z" fill="black" stroke="black" stroke-width="1.70225" stroke-miterlimit="10" stroke-linecap="round"/>
<path d="M324.328 204.795L321.65 221.248L318.968 237.705" fill="black"/>
<path d="M324.328 204.795L321.65 221.248L318.968 237.705" stroke="black" stroke-width="1.70225" stroke-miterlimit="10" stroke-linecap="round"/>
<path d="M362.603 197.798C362.46 198.105 362.288 198.492 362.095 198.946C361.901 199.4 361.699 199.922 361.493 200.502C361.14 201.499 360.879 202.386 360.682 203.164C360.484 203.941 360.341 204.61 360.228 205.165C359.947 206.505 359.656 207.936 359.353 209.458C359.05 210.98 358.734 212.597 358.403 214.31" stroke="black" stroke-width="1.70225" stroke-miterlimit="10" stroke-linecap="round"/>
<path d="M356.868 210.177H300.278H243.688V169.901V129.62H300.278H356.868V169.901V210.177Z" fill="white" stroke="black" stroke-width="1.70225" stroke-miterlimit="10" stroke-linecap="round"/>
<path d="M303.511 231.385L306.076 220.781L308.645 210.177H298.508H288.375L285.806 220.781L283.241 231.385H283.237L282.459 234.598L281.685 237.81H291.818H301.956H317.206H332.456V234.598V231.385H317.984H303.511Z" fill="white" stroke="black" stroke-width="1.70225" stroke-miterlimit="10" stroke-linecap="round"/>
<path d="M396.846 87.8465L387.31 86.8037L377.774 85.7609C377.645 88.3426 377.858 90.9299 378.409 93.4555C379.578 98.9217 382.5 103.857 386.73 107.512C387.919 108.541 389.196 109.464 390.547 110.27C391.836 108.579 392.947 106.76 393.865 104.842C395.613 101.178 396.655 97.2186 396.939 93.1695C397.06 91.3958 397.029 89.6149 396.846 87.8465Z" fill="#ABFA00" stroke="black" stroke-width="1.70225" stroke-miterlimit="10" stroke-linecap="round"/>
<path d="M384.072 104.842C383.614 104.308 383.269 103.854 383.004 103.484C382.74 103.114 382.584 102.824 382.445 102.618C382.306 102.411 382.273 102.323 382.206 102.197C382.138 102.071 382.075 101.957 382.029 101.865L382.256 101.966L382.529 102.079L382.773 102.163C382.916 102.214 383.114 102.273 383.311 102.323C384.402 102.604 385.544 102.617 386.641 102.36C387.737 102.103 388.755 101.584 389.607 100.848C390.459 100.112 391.121 99.1803 391.534 98.1329C391.948 97.0855 392.102 95.9535 391.982 94.8337C391.863 93.7139 391.474 92.6397 390.849 91.7029C390.224 90.7662 389.382 89.9948 388.393 89.4548C387.405 88.9148 386.301 88.6222 385.175 88.602C384.049 88.5819 382.935 88.8349 381.928 89.3392C380.436 90.0895 379.248 91.3309 378.564 92.8543C378.409 92.3456 378.262 91.7737 378.144 91.1472C378.005 90.4707 377.902 89.7871 377.837 89.0996C377.778 88.4689 377.753 87.8718 377.753 87.3126C377.753 86.7534 377.774 86.2362 377.812 85.7611L361.527 83.9657L345.251 82.1871C345.032 82.7758 344.83 83.3728 344.633 83.9783C344.435 84.5838 344.271 85.206 344.116 85.8325C342.232 93.2595 343.182 101.122 346.781 107.886C350.217 114.193 355.935 118.995 363.112 120.752C368.147 121.975 373.438 121.599 378.249 119.676C383.127 117.718 387.377 114.464 390.539 110.266C389.692 109.748 388.872 109.187 388.084 108.584C387.381 108.054 386.789 107.55 386.301 107.112C386.032 106.873 385.695 106.553 385.313 106.17C384.93 105.788 384.514 105.359 384.072 104.842Z" fill="white" stroke="black" stroke-width="1.70225" stroke-miterlimit="10" stroke-linecap="round"/>
<path d="M378.438 102.319C378.229 103.157 377.735 103.897 377.041 104.412C376.348 104.927 375.497 105.185 374.634 105.143C373.771 105.102 372.95 104.762 372.309 104.182C371.669 103.602 371.25 102.818 371.122 101.964C370.995 101.109 371.168 100.237 371.612 99.496C372.056 98.7548 372.743 98.1905 373.556 97.8991C374.37 97.6078 375.259 97.6075 376.072 97.8982C376.886 98.189 377.573 98.7528 378.017 99.4936C378.271 99.9133 378.439 100.379 378.511 100.864C378.583 101.349 378.558 101.844 378.438 102.319Z" fill="#ABFA00" stroke="black" stroke-width="1.70225" stroke-miterlimit="10" stroke-linecap="round"/>
<path d="M355.552 109.11C355.343 109.947 354.85 110.686 354.158 111.201C353.465 111.715 352.615 111.974 351.753 111.932C350.892 111.891 350.071 111.551 349.431 110.972C348.791 110.393 348.372 109.61 348.245 108.757C348.117 107.903 348.29 107.032 348.733 106.292C349.176 105.551 349.863 104.987 350.675 104.696C351.487 104.405 352.376 104.405 353.188 104.695C354.001 104.985 354.688 105.548 355.132 106.288C355.639 107.137 355.79 108.151 355.552 109.11Z" fill="#ABFA00" stroke="black" stroke-width="1.70225" stroke-miterlimit="10" stroke-linecap="round"/>
<path d="M352.744 98.9219C352.647 99.3087 352.402 99.6417 352.061 99.848C351.719 100.054 351.311 100.118 350.923 100.023C350.731 99.9767 350.55 99.8924 350.39 99.7755C350.231 99.6586 350.096 99.5113 349.994 99.3421C349.892 99.1729 349.824 98.9852 349.794 98.7897C349.764 98.5942 349.774 98.3948 349.821 98.2029C349.868 98.0107 349.952 97.8298 350.069 97.6703C350.186 97.5108 350.334 97.3761 350.503 97.2737C350.672 97.1713 350.86 97.1034 351.055 97.0738C351.251 97.0442 351.45 97.0535 351.642 97.1012C351.834 97.1467 352.015 97.2305 352.174 97.3475C352.333 97.4646 352.467 97.6125 352.567 97.7824C352.671 97.9509 352.74 98.1386 352.771 98.3343C352.801 98.53 352.792 98.7298 352.744 98.9219Z" fill="black"/>
<path d="M368.28 96.3403C368.184 96.7279 367.939 97.0619 367.598 97.2692C367.257 97.4764 366.847 97.54 366.459 97.4461C366.267 97.3994 366.086 97.3151 365.927 97.1982C365.767 97.0812 365.632 96.9339 365.53 96.7648C365.428 96.5956 365.36 96.4079 365.33 96.2124C365.301 96.0168 365.31 95.8174 365.358 95.6255C365.453 95.2379 365.698 94.9039 366.04 94.6967C366.381 94.4894 366.79 94.4258 367.178 94.5197C367.37 94.5665 367.551 94.6508 367.711 94.7677C367.87 94.8846 368.005 95.0319 368.107 95.2011C368.21 95.3703 368.278 95.558 368.307 95.7535C368.337 95.949 368.328 96.1484 368.28 96.3403Z" fill="black"/>
<path d="M351.924 90.0876C355.01 88.8666 358.278 88.1702 361.594 88.0273C363.009 87.9662 364.427 88.0055 365.837 88.1451C366.985 88.2605 368.125 88.443 369.251 88.6917" stroke="black" stroke-width="1.70225" stroke-miterlimit="10" stroke-linecap="round"/>
<path d="M356.234 89.213L357.012 96.3063L357.794 103.4L358.782 103.206L359.774 103.017" stroke="black" stroke-width="1.70225" stroke-miterlimit="10" stroke-linecap="round"/>
<path d="M377.084 63.6825C370.618 62.1345 363.802 63.1916 358.108 66.6257C352.154 70.1893 347.604 75.6905 345.221 82.2082L371.038 85.0295L396.846 87.8466C396.32 82.2216 394.176 76.8694 390.674 72.4365C387.237 68.0956 382.458 65.0169 377.084 63.6825Z" fill="white" stroke="black" stroke-width="1.70225" stroke-miterlimit="10" stroke-linecap="round"/>
<path d="M382.302 97.2777L384.854 96.0373L387.407 94.7928" stroke="black" stroke-width="1.70225" stroke-miterlimit="10" stroke-linecap="round"/>
<path d="M355.031 83.2722C354.873 86.0375 353.886 88.6912 352.197 90.8868C350.602 92.9845 348.363 94.5014 345.823 95.205C344.871 95.4592 343.89 95.5879 342.905 95.5876C342.023 95.5862 341.144 95.486 340.285 95.2891C338.099 94.8025 336.093 93.713 334.495 92.144C333.347 91.0248 332.463 89.6634 331.908 88.1591C331.353 86.6548 331.141 85.0455 331.287 83.4488C331.375 82.4674 331.606 81.5041 331.973 80.5896C332.792 78.6013 334.143 76.8773 335.879 75.6071C336.738 74.9468 337.719 74.4628 338.766 74.1828C339.813 73.9028 340.905 73.8325 341.98 73.9757C343.302 74.1981 344.545 74.7554 345.591 75.5945C346.285 76.1362 346.905 76.7651 347.437 77.4656C347.177 77.886 346.916 78.378 346.659 78.8783C346.403 79.3787 346.151 79.9001 345.907 80.4551C345.776 80.7578 345.65 81.0521 345.533 81.3423C345.415 81.6324 345.306 81.9225 345.205 82.1832L350.111 82.7214L355.031 83.2722Z" fill="#ABFA00" stroke="black" stroke-width="1.70225" stroke-miterlimit="10" stroke-linecap="round"/>
<path d="M349.788 73.984L372.388 76.9609L394.988 79.9336" stroke="black" stroke-width="1.70225" stroke-miterlimit="10" stroke-linecap="round"/>
<path d="M356.625 74.8837L355.603 79.0547L354.581 83.2257" stroke="black" stroke-width="1.70225" stroke-miterlimit="10" stroke-linecap="round"/>
<path d="M365.538 76.12L364.575 80.0639L363.608 84.0037" stroke="black" stroke-width="1.70225" stroke-miterlimit="10" stroke-linecap="round"/>
<path d="M376.42 77.6588L375.47 81.5313L374.52 85.4038" stroke="black" stroke-width="1.70225" stroke-miterlimit="10" stroke-linecap="round"/>
<path d="M387.533 79.1095L386.633 82.7759L385.734 86.4382" stroke="black" stroke-width="1.70225" stroke-miterlimit="10" stroke-linecap="round"/>
<path d="M369.722 105.09C369.682 104.946 369.612 104.813 369.517 104.698C369.421 104.584 369.303 104.491 369.169 104.426C369.035 104.36 368.888 104.324 368.739 104.32C368.59 104.316 368.442 104.343 368.305 104.4L366.047 105.342L363.785 106.284C363.028 107.38 362.479 108.606 362.166 109.9C361.915 110.892 361.774 111.909 361.745 112.932C362.55 113.236 363.408 113.379 364.268 113.352C365.12 113.326 365.955 113.108 366.711 112.713C367.975 112.019 368.951 110.898 369.465 109.551C370.035 108.132 370.125 106.565 369.722 105.09Z" fill="white" stroke="black" stroke-width="1.70225" stroke-miterlimit="10" stroke-linecap="round"/>
<path d="M358.731 108.387C358.593 108.445 358.469 108.532 358.367 108.641C358.265 108.751 358.187 108.88 358.138 109.021C358.086 109.163 358.066 109.314 358.078 109.465C358.091 109.615 358.135 109.761 358.209 109.892C358.998 111.287 360.251 112.363 361.75 112.932C361.779 111.909 361.92 110.892 362.17 109.9C362.483 108.606 363.032 107.38 363.789 106.284L361.266 107.335L358.731 108.387Z" fill="black" stroke="black" stroke-width="1.70225" stroke-miterlimit="10" stroke-linecap="round"/>
<path d="M388.475 369.55C386.124 363.193 384.014 357.668 382.302 353.274C380.591 348.88 379.275 345.613 378.518 343.763C378.213 342.988 377.833 342.244 377.383 341.543C376.758 340.569 375.938 339.735 374.974 339.096C374.521 338.799 374.038 338.554 373.531 338.364C372.66 338.047 371.754 337.835 370.832 337.733C369.774 337.643 368.708 337.69 367.662 337.872C365.181 338.276 362.741 338.894 360.367 339.718C358.756 340.222 357.178 340.824 355.641 341.522C353.834 342.365 352.147 343.446 350.624 344.734C349.556 345.64 348.571 346.641 347.681 347.724C347 348.55 346.374 349.419 345.806 350.326C345.806 350.326 345.44 346.513 343.552 343.477C341.664 340.441 338.259 338.187 332.2 341.303L325.788 344.742L319.396 348.178C318.339 348.748 317.552 349.716 317.207 350.867C316.862 352.018 316.989 353.259 317.559 354.316L320.254 359.295L322.949 364.277C323.726 365.689 324.078 367.295 323.963 368.902C323.765 371.593 322.155 375.033 316.512 378.018L305.925 383.001L295.337 387.962C293.605 388.778 291.864 389.577 290.115 390.359C288.366 391.141 286.613 391.917 284.855 392.688C281.782 394.038 276.711 396.657 273.259 400.496C269.807 404.335 267.969 409.402 271.358 415.633L335.269 407.859L399.18 400.088L393.819 384.813C392.042 379.731 390.26 374.643 388.475 369.55Z" fill="white" stroke="black" stroke-width="1.70225" stroke-miterlimit="10" stroke-linecap="round"/>
<path d="M345.789 350.327C345.629 353.163 345.206 355.978 344.528 358.736C343.409 363.306 341.303 368.592 337.38 371.463" stroke="black" stroke-width="1.70225" stroke-miterlimit="10" stroke-linecap="round"/>
<path d="M321.658 374.142L326.574 376.189L331.489 378.216" stroke="black" stroke-width="1.70225" stroke-miterlimit="10" stroke-linecap="round"/>
<path d="M310.083 381.235L314.578 383.758L319.06 386.327" stroke="black" stroke-width="1.70225" stroke-miterlimit="10" stroke-linecap="round"/>
<path d="M299.344 386.327L304.062 389.367L308.784 392.407" stroke="black" stroke-width="1.70225" stroke-miterlimit="10" stroke-linecap="round"/>
<path d="M363.259 354.662C363.257 355.665 362.908 356.636 362.27 357.41C361.632 358.184 360.745 358.713 359.761 358.907C358.777 359.101 357.756 358.947 356.872 358.472C355.989 357.997 355.297 357.231 354.916 356.303C354.534 355.376 354.486 354.344 354.779 353.385C355.073 352.426 355.69 351.598 356.525 351.043C357.36 350.488 358.363 350.24 359.36 350.34C360.358 350.441 361.291 350.885 361.998 351.596C362.4 351.999 362.718 352.477 362.934 353.003C363.151 353.529 363.261 354.093 363.259 354.662Z" fill="black" stroke="black" stroke-width="1.70225" stroke-miterlimit="10" stroke-linecap="round"/>
<path d="M399.369 400.156L335.361 407.788L271.358 415.406C272.692 418.409 274.952 420.906 277.807 422.532C280.663 424.158 283.963 424.828 287.227 424.442L311.075 421.625L334.928 418.808C336.398 418.634 337.845 418.302 339.242 417.816C340.641 417.333 341.985 416.701 343.249 415.932L344.393 415.23L345.549 414.536C345.696 414.447 345.862 414.395 346.033 414.382C346.204 414.37 346.376 414.398 346.534 414.465C346.692 414.532 346.832 414.636 346.942 414.767C347.052 414.899 347.13 415.054 347.168 415.221C347.296 415.793 347.631 416.297 348.109 416.636C348.586 416.975 349.172 417.126 349.754 417.059L360.766 415.755L371.778 414.452C372.292 414.393 372.775 414.177 373.163 413.834C373.55 413.492 373.823 413.038 373.943 412.535L374.057 412.055L374.175 411.572C374.203 411.457 374.262 411.352 374.347 411.269C374.432 411.186 374.539 411.129 374.654 411.104C374.77 411.079 374.891 411.087 375.002 411.127C375.114 411.168 375.212 411.239 375.285 411.332L375.781 412.173L376.277 413.014C376.42 413.262 376.634 413.461 376.891 413.586C377.15 413.719 377.443 413.769 377.732 413.729L380.002 413.46L382.277 413.195C382.575 413.159 382.855 413.034 383.08 412.836C383.306 412.638 383.465 412.376 383.538 412.085L383.753 411.185L383.971 410.285C383.999 410.17 384.059 410.065 384.144 409.982C384.229 409.899 384.335 409.842 384.451 409.817C384.567 409.792 384.688 409.8 384.799 409.841C384.911 409.881 385.009 409.952 385.081 410.046L385.397 410.584L385.712 411.126C385.981 411.589 386.38 411.962 386.86 412.198C387.339 412.439 387.879 412.534 388.412 412.472L389.997 412.282L391.582 412.093C392.931 411.931 394.228 411.476 395.382 410.759C396.536 410.042 397.519 409.08 398.261 407.942C399.004 406.804 399.488 405.517 399.679 404.172C399.87 402.827 399.764 401.456 399.369 400.156Z" fill="black" stroke="black" stroke-width="1.70225" stroke-miterlimit="10" stroke-linecap="round"/>
<path d="M436.79 309.146H376.811L375.672 295.88L374.536 282.619L405.651 282.703L436.765 282.783C437.334 282.782 437.898 282.894 438.423 283.112C438.949 283.329 439.427 283.648 439.829 284.05C440.231 284.452 440.55 284.93 440.768 285.456C440.985 285.981 441.097 286.545 441.096 287.114V304.811C441.097 305.38 440.985 305.943 440.768 306.469C440.55 306.995 440.231 307.472 439.829 307.875C439.427 308.277 438.949 308.596 438.423 308.813C437.898 309.031 437.334 309.143 436.765 309.142L436.79 309.146Z" fill="white" stroke="black" stroke-width="1.70225" stroke-miterlimit="10" stroke-linecap="round"/>
<path d="M416.469 245.744L438.115 333.066L459.756 420.389" stroke="black" stroke-width="1.70225" stroke-miterlimit="10" stroke-linecap="round"/>
<path d="M374.801 282.741L404.835 295.721L434.857 308.696C435.558 309 436.324 309.123 437.085 309.055C437.846 308.987 438.578 308.73 439.215 308.307C439.852 307.885 440.373 307.309 440.73 306.634C441.088 305.959 441.272 305.205 441.264 304.441L441.176 295.515L441.084 286.592C441.07 285.586 440.662 284.626 439.947 283.918C439.232 283.21 438.268 282.811 437.262 282.808L406.05 282.724L374.839 282.64C374.825 282.639 374.812 282.643 374.801 282.651C374.79 282.66 374.783 282.672 374.78 282.686C374.779 282.696 374.78 282.707 374.784 282.716C374.787 282.726 374.794 282.734 374.801 282.741Z" fill="#ABFA00" stroke="black" stroke-width="1.70225" stroke-miterlimit="10" stroke-linecap="round"/>
<path d="M427.725 161.554C429.303 165.557 430.878 169.557 432.451 173.554L437.181 185.554C437.192 185.581 437.192 185.612 437.181 185.639C437.174 185.652 437.165 185.663 437.153 185.673C437.141 185.682 437.128 185.689 437.114 185.693L426.699 188.607L416.28 191.525C416.262 191.529 416.243 191.529 416.225 191.524C416.207 191.519 416.191 191.509 416.179 191.496C416.165 191.482 416.155 191.464 416.152 191.444C416.148 191.425 416.15 191.405 416.158 191.386L421.842 176.468L427.54 161.559C427.547 161.539 427.56 161.521 427.577 161.509C427.595 161.497 427.615 161.491 427.636 161.491C427.656 161.492 427.674 161.499 427.69 161.51C427.705 161.521 427.717 161.536 427.725 161.554Z" fill="#ABFA00" stroke="black" stroke-width="1.70225" stroke-miterlimit="10" stroke-linecap="round"/>
<path d="M462.633 72.6198H420.625C419.322 72.6213 418.073 73.1396 417.152 74.0609C416.231 74.9822 415.713 76.2313 415.711 77.5342V100.933C415.711 102.236 416.229 103.486 417.15 104.408C418.072 105.33 419.322 105.847 420.625 105.847H439.749L440.535 113.746L441.276 120.786L446.093 111.523L449.141 105.847H462.633C463.937 105.847 465.187 105.33 466.108 104.408C467.03 103.486 467.548 102.236 467.548 100.933V77.5342C467.546 76.2313 467.028 74.9822 466.107 74.0609C465.185 73.1396 463.936 72.6213 462.633 72.6198Z" fill="white" stroke="#ABFA00" stroke-width="1.70225" stroke-miterlimit="10" stroke-linecap="round"/>
<path d="M432.65 90.2306C432.651 90.9476 432.403 91.6427 431.949 92.1974C431.494 92.7521 430.862 93.1321 430.159 93.2726C429.455 93.4131 428.725 93.3055 428.093 92.968C427.46 92.6306 426.964 92.0842 426.689 91.422C426.414 90.7598 426.377 90.0227 426.585 89.3364C426.792 88.6501 427.232 88.057 427.827 87.6582C428.423 87.2594 429.139 87.0796 429.853 87.1493C430.566 87.2191 431.234 87.5341 431.741 88.0408C432.029 88.328 432.258 88.6692 432.414 89.045C432.57 89.4208 432.65 89.8237 432.65 90.2306Z" fill="white" stroke="#ABFA00" stroke-width="1.70225" stroke-miterlimit="10" stroke-linecap="round"/>
<path d="M456.801 90.2305C456.797 90.9462 456.545 91.6384 456.087 92.1891C455.63 92.7398 454.996 93.1148 454.293 93.2503C453.59 93.3859 452.862 93.2735 452.233 92.9323C451.604 92.5911 451.113 92.0423 450.843 91.3793C450.573 90.7164 450.541 89.9804 450.753 89.2968C450.965 88.6132 451.408 88.0243 452.006 87.6305C452.603 87.2366 453.319 87.0622 454.031 87.137C454.743 87.2118 455.407 87.5312 455.909 88.0407C456.194 88.3292 456.42 88.6711 456.573 89.0469C456.726 89.4226 456.803 89.8248 456.801 90.2305Z" fill="white" stroke="#ABFA00" stroke-width="1.70225" stroke-miterlimit="10" stroke-linecap="round"/>
<path d="M444.869 90.5356C444.868 91.2511 444.62 91.9442 444.165 92.497C443.711 93.0498 443.079 93.428 442.377 93.5672C441.676 93.7064 440.947 93.598 440.316 93.2604C439.686 92.9229 439.191 92.3771 438.918 91.716C438.644 91.0549 438.608 90.3193 438.816 89.6347C439.024 88.9501 439.463 88.3587 440.058 87.9612C440.652 87.5638 441.367 87.3849 442.079 87.455C442.791 87.5251 443.457 87.8399 443.963 88.3458C444.543 88.9268 444.869 89.7144 444.869 90.5356Z" fill="white" stroke="#ABFA00" stroke-width="1.70225" stroke-miterlimit="10" stroke-linecap="round"/>
</svg>
